<?xml version="1.0" encoding="UTF-8"?>
<svg id="Ebene_1" data-name="Ebene 1" xmlns="http://www.w3.org/2000/svg" viewBox="0 0 223.13 206.37">
  <path d="M43.59,83.17c25.03-28.68,21.04-39.03,38-55C106.56,4.65,155.7-11.02,189.59,11.17c34.45,22.55,33.16,71.12,33,75-3.01,72.88-93.04,118.46-104,109-6.88-5.94,18.68-32.46,12-75-3.29-20.96-13.63-40.88-20-40-10.96,1.52,5.58,62.41-28,99-24.29,26.46-67.32,32.07-74,22-6.16-9.29,16.04-35.8,43-68,23.63-28.22,38.46-40.47,36-44C82.21,81.45,3.64,129.06.59,124.17c-1.58-2.54,19.98-14.63,43-41Z" style="fill: #fff; stroke-width: 0px;"/>
  <path d="M23.52,206.37c-1.25,0-2.46-.05-3.63-.14-5.9-.46-9.96-2.12-11.72-4.79-6.36-9.6,15.44-35.64,43.03-68.6,9.14-10.91,16.81-19.28,22.98-26,8.9-9.7,14.27-15.56,13-17.39-2.76-3.96-30.73,10.07-51.15,20.32C11.67,121.99,1.6,126.74.16,124.43c-.89-1.42,1.86-3.65,8.49-9.04,7.89-6.4,21.09-17.12,34.56-32.56l.38.33-.38-.33c12.96-14.85,18.01-24.56,22.45-33.12,3.96-7.61,7.37-14.19,15.58-21.92C107.8,2.79,156.88-10.84,189.86,10.75c14.51,9.5,24.5,24.57,29.69,44.79,3.94,15.34,3.64,28.22,3.54,30.64-2.17,52.55-50.14,92.07-81.86,105.81-11.29,4.89-19.88,6.21-22.97,3.55-2.92-2.52-.71-7.99,2.63-16.27,5.29-13.13,13.29-32.97,9.2-59.03-2.83-18.07-12.79-40.52-19.44-39.58-3.62.5-3.93,9.15-4.36,21.12-.79,21.68-1.98,54.45-23.34,77.72-16.44,17.92-41.94,26.86-59.43,26.86ZM85.2,87.85c1.37,0,2.31.33,2.8,1.03,1.74,2.49-2.91,7.55-13.08,18.64-6.16,6.71-13.82,15.07-22.95,25.96-26.25,31.35-48.92,58.42-42.97,67.4,1.57,2.37,5.46,3.91,10.97,4.34,17.19,1.37,44.84-7.44,62.25-26.41,21.11-23,22.29-55.54,23.07-77.08.47-12.92.78-21.46,5.23-22.08,6.9-.96,17.27,19.44,20.56,40.42,4.13,26.33-3.93,46.33-9.26,59.56-3.18,7.88-5.28,13.09-2.9,15.14,2.75,2.38,11.15.96,21.92-3.71,31.48-13.64,79.1-52.84,81.26-104.93.06-1.47.48-14.82-3.51-30.35-5.13-19.98-14.97-34.85-29.27-44.21C169.75-1.22,147.54-.14,132.34,3.02c-18.74,3.9-37.59,13.43-50.42,25.51-8.08,7.61-11.3,13.81-15.38,21.65-4.25,8.19-9.55,18.37-22.59,33.32-13.53,15.5-26.77,26.25-34.68,32.67-4.27,3.47-8.69,7.06-8.27,7.73,1.1,1.77,20.44-7.94,34.56-15.03,24.14-12.11,42.53-21.03,49.62-21.03Z" style="fill: #fff; stroke-width: 0px;"/>
</svg>